# Blender v2.92.0 OBJ File: 'pictureframe.blend'
# www.blender.org
mtllib pictureframe2.mtl
o Cube
v -0.072169 4.650582 1.630311
v -0.072169 4.656119 -1.608454
v -0.072169 0.674855 1.608454
v -0.072169 0.680393 -1.630311
v 0.072169 4.599021 1.655378
v 0.072169 4.604646 -1.634087
v 0.072169 0.726329 1.634087
v 0.072169 0.731953 -1.655378
v -0.072169 4.747198 1.804627
v -0.072169 4.753330 -1.781704
v -0.072169 0.577644 1.781703
v -0.072169 0.583776 -1.804627
v -0.022097 4.650582 1.630311
v -0.022097 4.656119 -1.608454
v -0.022097 0.674855 1.608454
v -0.022097 0.680393 -1.630311
v -0.014562 4.650582 1.630311
v -0.014562 4.656119 -1.608454
v -0.014562 0.674855 1.608454
v -0.014562 0.680393 -1.630311
v 0.072169 4.753330 -1.781704
v 0.072169 0.583776 -1.804627
v 0.072169 0.577644 1.781703
v 0.072169 4.747198 1.804627
v 0.022769 4.604646 -1.634087
v 0.022769 0.731953 -1.655378
v 0.022769 0.726329 1.634087
v 0.022769 4.599021 1.655378
vt 0.612886 0.505811
vt 0.612886 0.744189
vt 0.612886 0.744189
vt 0.612886 0.505811
vt 0.387114 0.505811
vt 0.387114 0.505811
vt 0.387114 0.744189
vt 0.387114 0.744189
vt 0.983948 0.999933
vt 0.000067 0.999933
vt 0.000067 0.000067
vt 0.999758 0.000067
vt 0.625000 0.500000
vt 0.875000 0.500000
vt 0.875000 0.750000
vt 0.625000 0.750000
vt 0.375000 0.750000
vt 0.625000 1.000000
vt 0.375000 1.000000
vt 0.614653 0.008900
vt 0.614653 0.241100
vt 0.614653 0.241100
vt 0.614653 0.008900
vt 0.125000 0.500000
vt 0.375000 0.500000
vt 0.125000 0.750000
vt 0.612886 0.744189
vt 0.387114 0.744189
vt 0.375000 0.250000
vt 0.625000 0.250000
vt 0.865818 0.622591
vt 0.155076 0.622591
vt 0.067947 0.212029
vt 0.922327 0.218798
vt 0.113815 0.686032
vt 0.892538 0.686032
vt 0.952215 0.887916
vt 0.045191 0.874147
vt 0.544919 0.738013
vt 0.570648 0.303544
vt 0.792643 0.206636
vt 0.796931 0.785512
vt 0.524602 0.382804
vt 0.524602 0.867196
vt 0.237512 0.879004
vt 0.237512 0.370996
vt 0.612886 0.505811
vt 0.387114 0.505811
vt 0.454915 0.225165
vt 0.454915 0.815374
vt 0.334253 0.837995
vt 0.334253 0.202543
vt 0.829186 0.411755
vt 0.194516 0.405803
vt 0.163747 0.280404
vt 0.845281 0.278767
vt 0.221308 0.294577
vt 0.796079 0.125082
vt 0.822984 0.184687
vt 0.196342 0.369479
vt 0.414841 0.856706
vt 0.414841 0.057223
vt 0.532477 0.026580
vt 0.532477 0.887349
vt 0.385347 0.008900
vt 0.385347 0.008900
vt 0.385347 0.241100
vt 0.385347 0.241100
vt 0.054422 0.042570
vt 0.950299 0.043829
vt 0.944194 0.966143
vt 0.053736 0.966829
vn 0.0000 -0.0055 1.0000
vn 0.0000 1.0000 0.0017
vn 0.0000 0.0055 -1.0000
vn 0.0000 -1.0000 -0.0017
vn 1.0000 0.0000 0.0000
vn -1.0000 0.0000 0.0000
usemtl Material
s off
f 13/1/1 15/2/1 19/3/1 17/4/1
f 14/5/2 13/1/2 17/4/2 18/6/2
f 16/7/3 14/5/3 18/6/3 20/8/3
f 15/2/4 16/7/4 20/8/4 19/3/4
usemtl Material.001
f 18/9/5 17/10/5 19/11/5 20/12/5
usemtl Material.002
f 9/13/3 24/14/3 23/15/3 11/16/3
f 12/17/2 11/16/2 23/18/2 22/19/2
f 7/20/1 5/21/1 28/22/1 27/23/1
f 21/24/1 10/25/1 12/17/1 22/26/1
f 3/27/4 4/28/4 16/7/4 15/2/4
f 21/29/4 24/30/4 9/13/4 10/25/4
f 1/31/5 2/32/5 10/33/5 9/34/5
f 4/35/5 3/36/5 11/37/5 12/38/5
f 3/39/5 1/40/5 9/41/5 11/42/5
f 2/43/5 4/44/5 12/45/5 10/46/5
f 1/47/1 3/27/1 15/2/1 13/1/1
f 2/48/2 1/47/2 13/1/2 14/5/2
f 4/28/3 2/48/3 14/5/3 16/7/3
f 8/49/6 6/50/6 21/51/6 22/52/6
f 7/53/6 8/54/6 22/55/6 23/56/6
f 6/57/6 5/58/6 24/59/6 21/60/6
f 5/61/6 7/62/6 23/63/6 24/64/6
f 8/65/4 7/20/4 27/23/4 26/66/4
f 5/21/2 6/67/2 25/68/2 28/22/2
f 6/67/3 8/65/3 26/66/3 25/68/3
usemtl Material.003
f 26/69/6 27/70/6 28/71/6 25/72/6
